<?xml version="1.0" standalone="no"?>
<!DOCTYPE svg PUBLIC "-//W3C//DTD SVG 20010904//EN"
 "http://www.w3.org/TR/2001/REC-SVG-20010904/DTD/svg10.dtd">
<svg version="1.0" xmlns="http://www.w3.org/2000/svg"
 width="700.000000pt" height="700.000000pt" viewBox="0 0 700.000000 700.000000"
 preserveAspectRatio="xMidYMid meet">
<metadata>
Created by potrace 1.11, written by Peter Selinger 2001-2013
</metadata>
<g transform="translate(0.000000,700.000000) scale(0.100000,-0.100000)"
fill="#000000" stroke="none">
<path d="M2112 5199 c-19 -17 -55 -60 -188 -219 -101 -121 -165 -198 -179
-214 -55 -62 -94 -115 -88 -118 5 -2 785 -4 1736 -3 950 0 1727 -1 1727 -4 0
-5 -45 -64 -63 -83 -7 -7 -19 -22 -27 -34 -8 -11 -31 -41 -52 -65 -34 -41
-245 -301 -308 -379 -116 -145 -255 -316 -260 -320 -3 -3 -29 -36 -59 -74 -29
-38 -61 -78 -72 -90 -14 -17 -160 -196 -329 -406 -81 -101 -371 -457 -438
-540 -43 -52 -134 -165 -202 -250 -68 -85 -130 -161 -137 -168 -7 -8 -26 -30
-41 -50 -15 -21 -29 -39 -32 -42 -10 -9 -256 -315 -264 -327 -6 -10 262 -13
1316 -13 728 1 1328 4 1333 8 6 4 69 77 140 162 71 85 173 207 227 271 54 64
98 119 98 123 0 3 -434 7 -964 8 l-965 3 190 235 c105 129 203 251 219 270 34
43 408 505 530 655 49 61 100 123 112 139 13 16 64 79 113 140 50 61 178 219
285 351 107 132 197 242 200 245 3 3 19 23 36 45 16 21 36 47 44 56 8 9 37 45
65 80 27 35 52 66 55 69 3 3 44 52 90 110 109 135 99 122 234 287 64 78 116
146 116 150 0 4 -941 8 -2091 8 -1898 0 -2092 -1 -2107 -16z"/>
<path d="M1641 3780 c-4 -3 -65 -75 -136 -160 -71 -85 -135 -161 -142 -168 -7
-7 -29 -34 -50 -60 -21 -26 -40 -49 -43 -52 -17 -16 -102 -120 -99 -121 2 0
472 -1 1044 -2 1028 -2 1040 -2 1060 18 17 17 417 490 452 535 10 13 -109 15
-1034 15 -575 0 -1048 -2 -1052 -5z"/>
<path d="M1135 2334 c-17 -20 -35 -42 -40 -48 -6 -6 -35 -40 -64 -75 -29 -35
-58 -70 -64 -77 -7 -6 -19 -20 -27 -31 -19 -24 -151 -183 -208 -250 l-44 -53
716 1 715 0 48 57 c26 31 58 68 70 82 103 120 353 421 353 425 0 3 -321 5
-713 5 l-712 0 -30 -36z"/>
</g>
</svg>
